<svg width="24" height="24" viewBox="0 0 24 24" fill="none" xmlns="http://www.w3.org/2000/svg">
<path fill-rule="evenodd" clip-rule="evenodd" d="M9 6H6C6 2.68629 8.68629 0 12 0C15.3137 0 18 2.68629 18 6V9C19.6025 9 21 10.1646 21 11.75V21.25C21 22.8354 19.6025 24 18 24H6C4.39747 24 3 22.8354 3 21.25V11.75C3 10.1646 4.39747 9 6 9H15V6C15 4.34315 13.6569 3 12 3C10.3431 3 9 4.34315 9 6ZM6 21V12H18V21H6ZM13.5 16.5C13.5 17.3284 12.8284 18 12 18C11.1716 18 10.5 17.3284 10.5 16.5C10.5 15.6716 11.1716 15 12 15C12.8284 15 13.5 15.6716 13.5 16.5Z" fill="#34A853"/>
</svg>
