<svg width="24" height="24" viewBox="0 0 24 24" fill="none" xmlns="http://www.w3.org/2000/svg">
<path fill-rule="evenodd" clip-rule="evenodd" d="M6 6V9C4.39747 9 3 10.1646 3 11.75V21.25C3 22.8354 4.39747 24 6 24H18C19.6025 24 21 22.8354 21 21.25V11.75C21 10.1646 19.6025 9 18 9V6C18 2.68629 15.3137 0 12 0C8.68629 0 6 2.68629 6 6ZM15 6V9H9V6C9 4.34315 10.3431 3 12 3C13.6569 3 15 4.34315 15 6ZM6 21V12H18V21H6ZM13.5 16.5C13.5 17.3284 12.8284 18 12 18C11.1716 18 10.5 17.3284 10.5 16.5C10.5 15.6716 11.1716 15 12 15C12.8284 15 13.5 15.6716 13.5 16.5Z" fill="black"/>
</svg>
