<svg xmlns="http://www.w3.org/2000/svg" width="105" height="70" viewBox="0 0 105 70" fill="none">
  <path d="M90.6687 54.5344C91.5439 54.5344 91.5439 51.126 89.7935 50.4443C87.1679 48.3993 88.9183 36.8107 93.2942 28.6306C94.1694 26.5855 96.795 21.8138 97.6702 17.7237C98.5454 14.3153 101.171 9.54352 102.046 7.49848C104.672 3.4084 105.547 0 104.672 0C103.797 0 102.046 0.68168 100.296 2.04504C96.795 4.09008 93.2942 5.45344 86.2927 7.49848C81.0415 8.86184 76.6655 10.9069 67.9136 14.3153C59.1616 17.042 44.2832 21.1321 30.2801 24.5405C25.9041 25.9038 18.0274 27.2672 13.6514 29.3122C8.4002 30.6756 3.14902 32.039 2.27383 32.039C-0.351762 32.039 -0.351762 32.039 0.523434 33.4023C1.39863 34.7657 3.14902 34.7657 4.89942 34.7657C6.64981 34.7657 12.7762 35.4474 17.1522 36.129C21.5281 37.4924 27.6545 38.1741 29.4049 38.1741C37.2817 38.1741 37.2817 38.1741 37.2817 42.9458C37.2817 53.8527 38.1569 67.4863 39.0321 68.8497C39.9073 70.8947 40.7825 70.213 41.6577 66.8046C42.5329 64.0779 44.2832 62.0329 53.9104 51.126C60.0368 44.3092 60.0368 44.3092 66.1632 45.6726C68.7887 46.3542 74.9151 48.3993 80.1663 50.4443C85.4175 52.4893 89.7935 54.5344 90.6687 54.5344ZM37.2817 36.129C32.0305 36.129 21.5281 35.4474 14.5266 34.084L7.525 33.4023L11.0258 32.039C12.7762 31.3573 15.4018 30.6756 16.277 29.9939C18.0274 29.3122 25.0289 27.9489 36.4065 25.2222C40.7825 24.5405 48.6592 22.4954 53.0352 21.1321C61.7872 18.4054 63.5376 17.7237 77.5407 12.9519C81.0415 11.5886 84.5423 10.9069 84.5423 10.9069C84.5423 10.9069 82.7919 12.2702 80.1663 13.6336C77.5407 14.997 72.2895 17.7237 68.7887 20.4504C64.4128 22.4954 58.2864 25.9038 54.7856 27.9489C51.2848 29.9939 46.0336 32.7206 44.2832 34.084C41.6577 36.129 39.9073 36.129 37.2817 36.129ZM43.4081 57.9428C42.5329 59.9878 41.6577 61.3512 41.6577 61.3512C40.7825 61.3512 39.0321 42.2641 39.9073 40.9008C40.7825 38.8558 46.9088 34.7657 53.9104 30.6756C56.536 29.3122 62.6624 25.9038 66.1632 23.8588C75.7903 18.4054 77.5407 17.7237 72.2895 21.8138C68.7887 24.5405 60.0368 31.3573 52.16 38.1741C49.5344 40.9008 48.6592 42.2641 46.0336 52.4893C45.1584 53.8527 44.2832 56.5794 43.4081 57.9428ZM52.16 49.0809C47.784 55.2161 46.9088 55.8977 47.784 53.171C47.784 52.4893 48.6592 49.7626 49.5344 47.7176C51.2848 42.9458 51.2848 42.9458 53.9104 42.9458C55.6608 43.6275 56.536 43.6275 56.536 43.6275C56.536 43.6275 54.7856 46.3542 52.16 49.0809ZM66.1632 43.6275C64.4128 43.6275 62.6624 42.9458 61.7872 42.9458C60.912 42.2641 59.1616 41.5825 57.4112 41.5825C55.6608 41.5825 54.7856 40.9008 54.7856 40.2191C54.7856 38.8558 76.6655 21.1321 83.6671 16.3603L88.9183 12.2702C90.6687 10.2252 97.6702 6.8168 98.5454 7.49848C99.4206 7.49848 95.9198 16.3603 91.5439 27.2672C88.9183 32.7206 87.1679 39.5374 86.2927 42.9458C86.2927 46.3542 85.4175 49.7626 84.5423 49.7626C84.5423 49.7626 81.0415 48.3993 77.5407 47.0359C73.1647 45.6726 67.9136 43.6275 66.1632 43.6275Z" fill="black"/>
</svg>